<svg width="612.8" height="103.6" viewBox="0 0 612.8 103.6" xmlns="http://www.w3.org/2000/svg">
	<g id="svgGroup" stroke-linecap="round" fill-rule="evenodd" font-size="9pt" stroke="#ffffff" stroke-width="0.25mm" fill="#ffffff" style="stroke:#ffffff;stroke-width:0.25mm;fill:#ffffff">
		<path d="M 204.5 76.7 L 218 76.7 L 218 44.3 A 22.718 22.718 0 0 1 218.714 38.413 C 219.325 36.136 220.308 34.26 221.587 32.784 A 12.29 12.29 0 0 1 231.2 28.7 A 14.505 14.505 0 0 1 236.395 29.572 C 241.088 31.364 243.5 35.834 243.5 42.2 L 243.5 76.7 L 257.2 76.7 L 257.2 44 A 22.325 22.325 0 0 1 257.885 38.282 C 258.465 36.094 259.393 34.286 260.593 32.854 A 11.986 11.986 0 0 1 270.1 28.7 C 276.853 28.7 280.956 32.19 282.305 37.974 A 20.387 20.387 0 0 1 282.8 42.6 L 282.8 76.7 L 296.6 76.7 L 296.6 41.5 A 32.776 32.776 0 0 0 295.047 31.006 C 292.034 22.094 284.632 17 272.8 17 A 23.699 23.699 0 0 0 262.953 19.065 A 22.048 22.048 0 0 0 253.6 27.1 A 18.483 18.483 0 0 0 241.588 17.832 A 27.738 27.738 0 0 0 234.6 17 A 22.135 22.135 0 0 0 226.565 18.448 A 19.72 19.72 0 0 0 217.9 25 L 217.9 18.2 L 204.5 18.2 L 204.5 76.7 Z M 532.7 41.1 L 532.7 35.7 L 494.8 35.7 L 494.8 48.7 L 518.1 48.7 A 21.819 21.819 0 0 1 511.273 59.738 C 507.65 62.776 502.854 64.5 497 64.5 C 482.8 64.5 472.6 53.7 472.6 40.2 A 23.995 23.995 0 0 1 495.865 15.908 A 24.872 24.872 0 0 1 496.5 15.9 C 506 15.9 513 20.1 517.6 28.6 L 529.6 21.4 A 36.365 36.365 0 0 0 508.937 4.621 A 40.747 40.747 0 0 0 496.4 2.7 A 37.31 37.31 0 0 0 473.476 10.259 C 464.571 17.082 459.111 27.91 459.1 40.164 A 41.394 41.394 0 0 0 459.1 40.2 A 36.601 36.601 0 0 0 488.825 76.921 A 42.346 42.346 0 0 0 497 77.7 A 36.232 36.232 0 0 0 514.984 73.179 A 36.157 36.157 0 0 0 532.7 41.1 Z M 442.8 34.8 L 454.3 29 C 449.8 21.5 442.3 16.9 430.4 16.9 A 29.402 29.402 0 0 0 420.42 18.557 C 416.839 19.847 413.883 21.818 411.697 24.211 A 15.681 15.681 0 0 0 407.4 34.8 A 16.385 16.385 0 0 0 408.504 40.987 C 411.287 47.887 418.91 50.42 426.534 52.106 A 131.137 131.137 0 0 0 427.9 52.4 A 304.61 304.61 0 0 0 430.857 53.035 C 436.787 54.291 441.6 55.4 441.6 59.1 A 6.25 6.25 0 0 1 438.628 64.458 C 437.054 65.492 434.85 66.139 432.01 66.196 A 20.558 20.558 0 0 1 431.6 66.2 C 425.353 66.2 420.536 63.342 417.705 58.091 A 18.754 18.754 0 0 1 417.5 57.7 L 405 63.7 C 409.7 72.9 417.9 77.9 431 77.9 C 447.7 77.9 455 67 455 58.8 C 455 47.889 446.344 43.981 437.687 41.912 A 85.689 85.689 0 0 0 434.4 41.2 C 425.6 39.3 421 38.3 421 34.4 A 5.347 5.347 0 0 1 423.01 30.242 C 424.286 29.171 426.182 28.405 428.732 28.173 A 18.449 18.449 0 0 1 430.4 28.1 A 15.718 15.718 0 0 1 436.152 29.139 A 13.188 13.188 0 0 1 442.8 34.8 Z M 317.7 26 L 317.7 18.2 L 304.3 18.2 L 304.3 103.6 L 317.7 103.6 L 317.7 69.8 C 321.8 75 328.8 77.9 336.8 77.9 A 26.843 26.843 0 0 0 338.202 77.863 C 350.881 77.2 363.561 67.587 365.298 51.342 A 36.114 36.114 0 0 0 365.5 47.5 C 365.5 28.1 351.4 17 336.7 17 A 25.224 25.224 0 0 0 326.042 19.293 A 21.835 21.835 0 0 0 317.7 26 Z M 196.2 62.1 L 185.1 55.7 C 182.3 62 176.5 66 168.9 66 A 20.66 20.66 0 0 1 161.031 64.545 A 16.913 16.913 0 0 1 150.9 52.2 L 198.5 52.2 L 198.5 47.1 A 30.684 30.684 0 0 0 192.853 28.944 C 187.52 21.572 178.799 17 168.4 17 A 30.117 30.117 0 0 0 138.122 44.78 A 32.512 32.512 0 0 0 138 47.6 A 29.369 29.369 0 0 0 160.54 76.91 A 34.793 34.793 0 0 0 168.9 77.9 A 34.432 34.432 0 0 0 179.679 76.274 A 28.643 28.643 0 0 0 196.2 62.1 Z M 0 76.7 L 14.2 76.7 L 18.7 63.7 L 47 63.7 L 51.5 76.7 L 65.7 76.7 L 39.7 3.7 L 26 3.7 L 0 76.7 Z M 575.4 77.7 A 37.3 37.3 0 0 0 612.8 40.322 A 39.043 39.043 0 0 0 612.8 40.2 C 612.8 19.5 596.2 2.7 575.4 2.7 C 554.6 2.7 538.1 19.5 538.1 40.2 C 538.1 61 554.6 77.7 575.4 77.7 Z M 60 30.3 L 70 30.3 L 70 52.3 C 70 70.9 75.5 76.7 93.6 76.7 L 95.5 76.7 L 95.5 64 A 54.11 54.11 0 0 1 91.62 63.886 C 84.708 63.38 83.6 60.966 83.6 52.2 L 83.6 30.3 L 95.5 30.3 L 95.5 18.2 L 83.6 18.2 L 83.6 0 L 70 9.3 L 70 18.2 L 60 18.2 L 60 30.3 Z M 99.9 30.3 L 109.9 30.3 L 109.9 52.3 C 109.9 70.9 115.4 76.7 133.5 76.7 L 135.4 76.7 L 135.4 64 A 54.11 54.11 0 0 1 131.52 63.886 C 124.608 63.38 123.5 60.966 123.5 52.2 L 123.5 30.3 L 135.4 30.3 L 135.4 18.2 L 123.5 18.2 L 123.5 0 L 109.9 9.3 L 109.9 18.2 L 99.9 18.2 L 99.9 30.3 Z M 366 30.3 L 376 30.3 L 376 52.3 C 376 70.9 381.5 76.7 399.6 76.7 L 401.5 76.7 L 401.5 64 A 54.11 54.11 0 0 1 397.62 63.886 C 390.708 63.38 389.6 60.966 389.6 52.2 L 389.6 30.3 L 401.5 30.3 L 401.5 18.2 L 389.6 18.2 L 389.6 0 L 376 9.3 L 376 18.2 L 366 18.2 L 366 30.3 Z M 551.6 40.356 A 23.855 23.855 0 0 0 575.4 64.3 C 588.7 64.3 599.3 53.5 599.3 40.2 C 599.3 26.9 588.7 16.1 575.4 16.1 A 24.547 24.547 0 0 0 575.244 16.1 A 23.86 23.86 0 0 0 551.6 40.2 A 25.27 25.27 0 0 0 551.6 40.356 Z M 322.744 60.826 A 16.906 16.906 0 0 0 334.6 65.5 A 17.249 17.249 0 0 0 347.695 59.591 A 18.543 18.543 0 0 0 352.2 47.3 A 19.491 19.491 0 0 0 352.087 45.201 A 17.505 17.505 0 0 0 334.6 29.3 A 18.919 18.919 0 0 0 333.862 29.314 C 324.146 29.694 317.2 37.545 317.2 47.3 A 20.766 20.766 0 0 0 317.224 48.303 C 317.465 53.282 319.492 57.71 322.744 60.826 Z M 32.9 23 L 42.5 50.7 L 23.3 50.7 L 32.9 23 Z M 184.8 40.9 L 151.6 40.9 A 17.134 17.134 0 0 1 166.903 28.956 A 19.995 19.995 0 0 1 168.4 28.9 C 176.241 28.9 181.991 32.472 184.348 39.373 A 19.61 19.61 0 0 1 184.8 40.9 Z" vector-effect="non-scaling-stroke"/>
	</g>
</svg>