<svg width="61.302" height="60.902" viewBox="0 0 61.302 60.902" xmlns="http://www.w3.org/2000/svg">
	<g id="svgGroup" stroke-linecap="round" fill-rule="evenodd" font-size="9pt" stroke="#ffffff" stroke-width="0.25mm" fill="#ffffff" style="stroke:#ffffff;stroke-width:0.25mm;fill:#ffffff">
		<path d="M 47.802 52.101 L 47.802 59.701 L 61.302 59.701 L 61.302 1.201 L 47.802 1.201 L 47.802 8.201 C 43.502 3.101 36.702 0.001 29.002 0.001 A 28.472 28.472 0 0 0 2.83 16.678 C 1.089 20.522 0.067 24.984 0.005 30.013 A 39.49 39.49 0 0 0 0.002 30.501 A 32.386 32.386 0 0 0 2.768 43.919 C 7.422 54.234 17.282 60.24 27.141 60.85 A 26.904 26.904 0 0 0 28.802 60.901 A 25.169 25.169 0 0 0 41.86 57.346 A 22.001 22.001 0 0 0 47.802 52.101 Z M 13.469 32.878 A 17.597 17.597 0 0 0 31.002 48.501 A 18.826 18.826 0 0 0 31.249 48.5 C 36.43 48.431 40.884 46.226 43.968 42.718 A 18.692 18.692 0 0 0 48.502 30.301 C 48.502 24.871 46.32 20.031 42.709 16.741 A 17.176 17.176 0 0 0 31.002 12.301 C 21.002 12.301 13.302 20.201 13.302 30.301 A 19.798 19.798 0 0 0 13.469 32.878 Z" vector-effect="non-scaling-stroke"/>
	</g>
</svg>